 http://content7.flixster.com/movie/11/17/12/11171265_800.jpg

Info:

Encoder ..........: Tommie Cook 
Video Codec.......: AVI.X264
Video Bitrate.....: 2500 Kbps 
Audio Codec.......: MP3
Audio Bitrate.....: 320kbs
Resolution........: 1280X540 
Release Date......: N/A
Theatre Date......: 10 May 2013 (USA)
Language..........: English
Subtitles.........: n/a
IMDB Rating.......: 7.5/10
IMDb URL..........:http://www.imdb.com/title/tt1343092/
________________________________________________________

Format : Matroska
Format version : Version 4 / Version 2
File size : 2.60 GiB
Duration : 2h 12mn
Overall bit rate mode : Variable
Overall bit rate : 2 810 Kbps
Encoded date : UTC 2010-02-22 21:41:31
Writing application : mkvmerge v5.9.0 ('On The Loose') built on Dec 9 2012 15:37:01
Writing library : libebml v1.3.0 + libmatroska v1.4.0





________________________________________________________________________________

Video

Video
ID : 1
Format : AVC
Format/Info : Advanced Video Codec
Format profile : High@L4.1
Format settings, CABAC : Yes
Format settings, ReFrames : 4 frames
Muxing mode : Header stripping
Codec ID : V_MPEG4/ISO/AVC
Duration : 2h 12mn
Bit rate : 2 500 Kbps
Width : 1 280 pixels
Height : 540 pixels
Display aspect ratio : 2.40:1
Frame rate mode : Constant
Frame rate : 29.970 fps
Color space : YUV
Chroma subsampling : 4:2:0
Bit depth : 8 bits
Scan type : Progressive
Bits/(Pixel*Frame) : 0.121
Stream size : 2.25 GiB (87%)
Writing library : x264 core 125 r2200bm 999b753

Audio

Audio
ID : 2
Format : MPEG Audio
Format version : Version 1
Format profile : Layer 3
Mode : Joint stereo
Mode extension : MS Stereo
Muxing mode : Header stripping
Codec ID : A_MPEG/L3
Codec ID/Hint : MP3
Duration : 2h 22mn
Bit rate mode : Variable
Bit rate : 320 Kbps
Channel(s) : 2 channels
Sampling rate : 48.0 KHz
Compression mode : Lossy
Delay relative to video : 7s 700ms
Stream size : 326 MiB (12%)
Writing library : LAME3.99.5
Default : Yes
Forced : No

Did so much to it i forgot what all i done, so sorry.

THERES A HEAD AT THE BOTTOM LEFT, SO YOU'VE BEEN WARNED.

Audio:
Got line from a freind. Thanks

MOVIE IS VERY WATCHABLE.



Screens: 
http://www.shotpix.com/images/42691290779803040857.png 
http://www.shotpix.com/images/71628904617253851958.png 
http://www.shotpix.com/images/67834808430486860859.png 
http://www.shotpix.com/images/54103391065384100212.png 
http://www.shotpix.com/images/40421813546598968017.png 
http://www.shotpix.com/images/96611889020028888170.png 
http://www.shotpix.com/images/96611889020028888170.png








